<svg xmlns="http://www.w3.org/2000/svg" viewBox="0 0 64 64" fill="none">
  <defs>
    <linearGradient id="g1" x1="12" y1="12" x2="52" y2="52" gradientUnits="userSpaceOnUse">
      <stop stop-color="#2dd4bf"/>
      <stop offset="1" stop-color="#0f766e"/>
    </linearGradient>
    <linearGradient id="g2" x1="18" y1="18" x2="46" y2="46" gradientUnits="userSpaceOnUse">
      <stop stop-color="#e2e8f0"/>
      <stop offset="1" stop-color="#94a3b8"/>
    </linearGradient>
  </defs>
  <rect x="6" y="6" width="52" height="52" rx="16" fill="#0f172a"/>
  <rect x="10" y="10" width="44" height="44" rx="13" fill="url(#g1)" opacity="0.18"/>
  <path d="M17 41.5H47C47 41.5 45 31 45 27.5C45 22 39.5 18 32 18C24.5 18 19 22 19 27.5C19 31 17 41.5 17 41.5Z" fill="#111827" stroke="url(#g2)" stroke-width="2.4" stroke-linejoin="round"/>
  <path d="M21 39C21.9 34.2 22.4 31.8 23.2 29.4C24.7 24.7 28.1 22.2 32 22.2C35.9 22.2 39.3 24.7 40.8 29.4C41.6 31.8 42.1 34.2 43 39" stroke="#2dd4bf" stroke-width="2.2" stroke-linecap="round" stroke-linejoin="round"/>
  <circle cx="32" cy="26.5" r="3.4" fill="#e2e8f0"/>
  <path d="M24.2 28.5H27.6M36.4 28.5H39.8" stroke="#94a3b8" stroke-width="2" stroke-linecap="round"/>
  <path d="M15 44.5H49" stroke="#64748b" stroke-width="1.8" stroke-linecap="round" opacity="0.7"/>
</svg>
